<svg xmlns="http://www.w3.org/2000/svg"  viewBox="0 0 24 24" width="16px" height="16px"><path d="M 9.8378906 4 C 9.0344777 4 8.2640717 4.322625 7.7011719 4.8945312 L 2.5761719 10.089844 C 2.2066148 10.464104 2 10.970674 2 11.494141 L 2 18.582031 C 2 19.884918 3.0480856 21 4.3632812 21 L 17.636719 21 C 18.951914 21 20 19.884918 20 18.582031 L 19.994141 6.4179688 C 19.994141 5.1150821 18.946055 4 17.630859 4 L 9.8378906 4 z M 9.8378906 6 L 17.630859 6 C 17.821664 6 17.994141 6.1568554 17.994141 6.4179688 L 17.996094 10 L 5.4726562 10 L 9.125 6.296875 C 9.3121002 6.1067812 9.5693036 6 9.8378906 6 z M 4 12 L 17.996094 12 L 18 18.583984 C 17.999081 18.843844 17.827015 19 17.636719 19 L 4.3632812 19 C 4.172477 19 4 18.843145 4 18.582031 L 4 12 z M 11 14 L 11 16 L 16 16 L 16 14 L 11 14 z"/></svg>