<svg width="32" height="32" viewBox="0 0 32 32" fill="none" xmlns="http://www.w3.org/2000/svg">
<path d="M27.9925 21.7605C27.7983 23.2118 27.0836 24.5432 25.9813 25.507C24.8791 26.4709 23.4642 27.0016 22 27.0005C17.4913 27.0005 13.1673 25.2094 9.97919 22.0213C6.79107 18.8332 5 14.5091 5 10.0005C4.99888 8.53621 5.5296 7.1214 6.49345 6.01913C7.45731 4.91686 8.78869 4.20216 10.24 4.00796C10.4545 3.98247 10.6716 4.02715 10.8586 4.13531C11.0456 4.24347 11.1926 4.4093 11.2775 4.60796L13.9188 10.508C13.9836 10.6595 14.0101 10.8247 13.9957 10.9889C13.9813 11.1532 13.9265 11.3113 13.8363 11.4492L11.165 14.6255C11.0702 14.7684 11.0142 14.9336 11.0024 15.1047C10.9906 15.2758 11.0233 15.4471 11.0975 15.6017C12.1313 17.718 14.3188 19.8792 16.4413 20.903C16.5967 20.9768 16.7688 21.0089 16.9404 20.9959C17.112 20.983 17.2773 20.9255 17.42 20.8292L20.545 18.1667C20.6835 18.0746 20.8428 18.0184 21.0084 18.0033C21.1741 17.9883 21.3409 18.0148 21.4938 18.0805L27.3888 20.7217C27.5883 20.8061 27.7551 20.953 27.864 21.1403C27.9729 21.3276 28.018 21.5453 27.9925 21.7605Z" fill="#F49D6E" fill-opacity="0.5"/>
<path d="M27.7963 19.8072L21.9075 17.1685L21.8913 17.161C21.5856 17.0302 21.2521 16.9778 20.921 17.0083C20.5899 17.0389 20.2716 17.1515 19.995 17.336C19.9624 17.3575 19.9311 17.3809 19.9013 17.406L16.8588 19.9997C14.9313 19.0635 12.9413 17.0885 12.005 15.186L14.6025 12.0972C14.6275 12.066 14.6513 12.0347 14.6738 12.001C14.8543 11.7251 14.9638 11.4089 14.9926 11.0805C15.0214 10.752 14.9686 10.4216 14.8388 10.1185V10.1035L12.1925 4.20475C12.0209 3.80883 11.7259 3.47902 11.3515 3.26455C10.9771 3.05007 10.5433 2.96245 10.115 3.01475C8.42122 3.23763 6.86649 4.06946 5.74118 5.35487C4.61587 6.64028 3.99695 8.29136 4.00001 9.99975C4.00001 19.9247 12.075 27.9997 22 27.9997C23.7084 28.0028 25.3595 27.3839 26.6449 26.2586C27.9303 25.1333 28.7621 23.5785 28.985 21.8847C29.0374 21.4566 28.95 21.0229 28.7357 20.6485C28.5215 20.2741 28.1919 19.979 27.7963 19.8072ZM22 25.9997C17.758 25.9951 13.691 24.3079 10.6914 21.3083C7.69184 18.3088 6.00464 14.2418 6.00001 9.99975C5.99531 8.77911 6.43507 7.59849 7.23718 6.67838C8.03929 5.75827 9.14889 5.16158 10.3588 4.99975C10.3583 5.00473 10.3583 5.00976 10.3588 5.01475L12.9838 10.8897L10.4 13.9822C10.3738 14.0124 10.35 14.0446 10.3288 14.0785C10.1407 14.3671 10.0303 14.6995 10.0084 15.0433C9.9865 15.3872 10.0538 15.7308 10.2038 16.041C11.3363 18.3572 13.67 20.6735 16.0113 21.8047C16.3237 21.9533 16.6694 22.0183 17.0144 21.9933C17.3595 21.9683 17.6922 21.8543 17.98 21.6622C18.0121 21.6406 18.043 21.6173 18.0725 21.5922L21.1113 18.9997L26.9863 21.631C26.9863 21.631 26.9963 21.631 27 21.631C26.8402 22.8426 26.2444 23.9544 25.3241 24.7585C24.4038 25.5626 23.2221 26.0039 22 25.9997Z" fill="black"/>
</svg>
