<svg width="33" height="32" viewBox="0 0 33 32" fill="none" xmlns="http://www.w3.org/2000/svg">
<path d="M27.666 16C27.666 18.1756 27.0209 20.3023 25.8122 22.1113C24.6035 23.9202 22.8855 25.3301 20.8755 26.1627C18.8656 26.9952 16.6538 27.2131 14.52 26.7886C12.3862 26.3642 10.4262 25.3166 8.88785 23.7782C7.34947 22.2398 6.30182 20.2798 5.87738 18.146C5.45295 16.0122 5.67078 13.8005 6.50335 11.7905C7.33591 9.7805 8.74581 8.06253 10.5547 6.85383C12.3637 5.64514 14.4904 5 16.666 5C19.5834 5 22.3813 6.15893 24.4442 8.22183C26.5071 10.2847 27.666 13.0826 27.666 16Z" fill="#F49D6E" fill-opacity="0.5"/>
<path d="M17.6668 9.9998V15.4335L22.1818 18.1423C22.4092 18.2789 22.573 18.5002 22.6373 18.7576C22.7015 19.015 22.6609 19.2874 22.5243 19.5148C22.3877 19.7422 22.1663 19.9061 21.9089 19.9703C21.6516 20.0345 21.3792 19.9939 21.1518 19.8573L16.1518 16.8573C16.0038 16.7684 15.8813 16.6427 15.7963 16.4924C15.7114 16.3421 15.6667 16.1724 15.6668 15.9998V9.9998C15.6668 9.73458 15.7721 9.48023 15.9597 9.29269C16.1472 9.10516 16.4015 8.9998 16.6668 8.9998C16.932 8.9998 17.1863 9.10516 17.3739 9.29269C17.5614 9.48023 17.6668 9.73458 17.6668 9.9998ZM28.6668 6.9998C28.4015 6.9998 28.1472 7.10516 27.9597 7.29269C27.7721 7.48023 27.6668 7.73458 27.6668 7.9998V10.2498C26.873 9.3298 26.063 8.44355 25.1518 7.52105C23.4841 5.85318 21.3619 4.71375 19.0503 4.24512C16.7387 3.77649 14.3403 3.99945 12.1547 4.88613C9.96917 5.77282 8.09336 7.28391 6.76168 9.2306C5.43001 11.1773 4.70153 13.4732 4.66728 15.8316C4.63303 18.1899 5.29452 20.5061 6.56909 22.4906C7.84366 24.4752 9.6748 26.0401 11.8337 26.9899C13.9926 27.9397 16.3835 28.2322 18.7077 27.8309C21.0319 27.4296 23.1863 26.3523 24.9018 24.7335C24.9973 24.6433 25.0741 24.535 25.1278 24.4151C25.1815 24.2951 25.2111 24.1657 25.2148 24.0343C25.2185 23.9029 25.1963 23.7721 25.1495 23.6493C25.1026 23.5265 25.032 23.4141 24.9418 23.3185C24.8515 23.223 24.7433 23.1462 24.6233 23.0925C24.5033 23.0388 24.3739 23.0092 24.2425 23.0055C24.1112 23.0018 23.9803 23.024 23.8575 23.0708C23.7347 23.1177 23.6223 23.1883 23.5268 23.2785C22.0968 24.6261 20.3016 25.5226 18.3652 25.856C16.4288 26.1894 14.4371 25.945 12.6388 25.1532C10.8405 24.3614 9.31529 23.0574 8.25365 21.4041C7.19202 19.7507 6.641 17.8212 6.6694 15.8565C6.69781 13.8918 7.30437 11.979 8.41335 10.357C9.52233 8.73501 11.0846 7.47564 12.905 6.73619C14.7254 5.99674 16.7234 5.80997 18.6493 6.1992C20.5753 6.58844 22.3439 7.53643 23.7343 8.9248C24.7518 9.9548 25.643 10.9473 26.5418 11.9998H23.6668C23.4015 11.9998 23.1472 12.1052 22.9597 12.2927C22.7721 12.4802 22.6668 12.7346 22.6668 12.9998C22.6668 13.265 22.7721 13.5194 22.9597 13.7069C23.1472 13.8944 23.4015 13.9998 23.6668 13.9998H28.6668C28.932 13.9998 29.1863 13.8944 29.3739 13.7069C29.5614 13.5194 29.6668 13.265 29.6668 12.9998V7.9998C29.6668 7.73458 29.5614 7.48023 29.3739 7.29269C29.1863 7.10516 28.932 6.9998 28.6668 6.9998Z" fill="black"/>
</svg>
