<svg xmlns="http://www.w3.org/2000/svg"  viewBox="0 0 24 24" width="16px" height="16px"><path d="M 8 1 C 6.3550302 1 5 2.3550302 5 4 L 5 21 L 3 21 L 3 23 L 19 23 L 19 21 L 17 21 L 17 18 L 19 18 C 20.64497 18 22 16.64497 22 15 L 22 7.5859375 L 18.707031 4.2929688 L 17.292969 5.7070312 L 19 7.4140625 L 19 9 C 19 9.552 19.448 10 20 10 L 20 15 C 20 15.56503 19.56503 16 19 16 L 17 16 L 17 4 C 17 2.3550302 15.64497 1 14 1 L 8 1 z M 8 3 L 14 3 C 14.56503 3 15 3.4349698 15 4 L 15 6 L 7 6 L 7 4 C 7 3.4349698 7.4349698 3 8 3 z M 7 8 L 15 8 L 15 21 L 7 21 L 7 8 z M 11.167969 9.8867188 C 10.635969 11.814719 8.6561094 11.941422 8.1621094 13.732422 C 7.9001094 14.683422 8.4028594 16.31175 10.005859 16.71875 C 9.7378594 17.04875 8.8555469 17.50875 8.1855469 17.84375 L 9.3046875 18.84375 C 9.9886875 18.33775 10.510875 17.763406 10.921875 17.191406 C 10.930875 17.177406 10.929453 17.17125 10.939453 17.15625 C 11.718453 16.01325 11.944172 15.017656 12.201172 13.847656 C 12.511172 15.073656 12.305891 16.170188 12.087891 16.867188 C 12.870891 16.618188 13.486078 16.054719 13.705078 15.261719 C 14.014078 14.138719 13.793969 11.648719 11.167969 9.8867188 z"/></svg>