<svg width="33" height="32" viewBox="0 0 33 32" fill="none" xmlns="http://www.w3.org/2000/svg">
<g clip-path="url(#clip0_6_57452)">
<path d="M29.666 12V24C29.666 24.2652 29.5607 24.5196 29.3731 24.7071C29.1856 24.8946 28.9312 25 28.666 25H4.66602C4.4008 25 4.14645 24.8946 3.95891 24.7071C3.77137 24.5196 3.66602 24.2652 3.66602 24V12H29.666Z" fill="#F49D6E" fill-opacity="0.5"/>
<path d="M28.666 6H4.66602C4.13558 6 3.62687 6.21071 3.2518 6.58579C2.87673 6.96086 2.66602 7.46957 2.66602 8V24C2.66602 24.5304 2.87673 25.0391 3.2518 25.4142C3.62687 25.7893 4.13558 26 4.66602 26H28.666C29.1964 26 29.7052 25.7893 30.0802 25.4142C30.4553 25.0391 30.666 24.5304 30.666 24V8C30.666 7.46957 30.4553 6.96086 30.0802 6.58579C29.7052 6.21071 29.1964 6 28.666 6ZM28.666 8V11H4.66602V8H28.666ZM28.666 24H4.66602V13H28.666V24ZM26.666 21C26.666 21.2652 26.5607 21.5196 26.3731 21.7071C26.1856 21.8946 25.9312 22 25.666 22H21.666C21.4008 22 21.1464 21.8946 20.9589 21.7071C20.7714 21.5196 20.666 21.2652 20.666 21C20.666 20.7348 20.7714 20.4804 20.9589 20.2929C21.1464 20.1054 21.4008 20 21.666 20H25.666C25.9312 20 26.1856 20.1054 26.3731 20.2929C26.5607 20.4804 26.666 20.7348 26.666 21ZM18.666 21C18.666 21.2652 18.5607 21.5196 18.3731 21.7071C18.1856 21.8946 17.9312 22 17.666 22H15.666C15.4008 22 15.1464 21.8946 14.9589 21.7071C14.7714 21.5196 14.666 21.2652 14.666 21C14.666 20.7348 14.7714 20.4804 14.9589 20.2929C15.1464 20.1054 15.4008 20 15.666 20H17.666C17.9312 20 18.1856 20.1054 18.3731 20.2929C18.5607 20.4804 18.666 20.7348 18.666 21Z" fill="black"/>
<path d="M0 -0.5L33 32.5" stroke="black" stroke-width="2"/>
</g>
<defs>
<clipPath id="clip0_6_57452">
<rect width="32" height="32" fill="white" transform="translate(0.666016)"/>
</clipPath>
</defs>
</svg>
