<svg width="33" height="32" viewBox="0 0 33 32" fill="none" xmlns="http://www.w3.org/2000/svg">
<path d="M27.334 14.443V27.0005H19.334V20.0005C19.334 19.7353 19.2286 19.4809 19.0411 19.2934C18.8536 19.1058 18.5992 19.0005 18.334 19.0005H14.334C14.0688 19.0005 13.8144 19.1058 13.6269 19.2934C13.4393 19.4809 13.334 19.7353 13.334 20.0005V27.0005H5.33398V14.443C5.334 14.3036 5.36314 14.1658 5.41954 14.0384C5.47594 13.9109 5.55835 13.7967 5.66148 13.703L15.6615 4.26047C15.8456 4.09288 16.0856 4 16.3346 4C16.5836 4 16.8236 4.09288 17.0077 4.26047L27.0077 13.703C27.1106 13.7968 27.1928 13.9111 27.249 14.0385C27.3052 14.1659 27.3341 14.3037 27.334 14.443Z" fill="#F49D6E" fill-opacity="0.5"/>
<path d="M30.334 25.9998H28.334V14.4436C28.334 14.1668 28.2766 13.893 28.1654 13.6395C28.0541 13.3861 27.8915 13.1584 27.6877 12.9711L17.6877 3.53608C17.6828 3.53181 17.6782 3.52722 17.674 3.52233C17.3058 3.18749 16.826 3.00195 16.3284 3.00195C15.8307 3.00195 15.3509 3.18749 14.9827 3.52233L14.969 3.53608L4.98023 12.9711C4.77648 13.1584 4.61384 13.3861 4.5026 13.6395C4.39136 13.893 4.33394 14.1668 4.33398 14.4436V25.9998H2.33398C2.06877 25.9998 1.81441 26.1052 1.62688 26.2927C1.43934 26.4803 1.33398 26.7346 1.33398 26.9998C1.33398 27.265 1.43934 27.5194 1.62688 27.7069C1.81441 27.8945 2.06877 27.9998 2.33398 27.9998H30.334C30.5992 27.9998 30.8536 27.8945 31.0411 27.7069C31.2286 27.5194 31.334 27.265 31.334 26.9998C31.334 26.7346 31.2286 26.4803 31.0411 26.2927C30.8536 26.1052 30.5992 25.9998 30.334 25.9998ZM6.33398 14.4436L6.34773 14.4311L16.334 4.99983L26.3215 14.4286L26.3352 14.4411V25.9998H20.334V19.9998C20.334 19.4694 20.1233 18.9607 19.7482 18.5856C19.3731 18.2105 18.8644 17.9998 18.334 17.9998H14.334C13.8036 17.9998 13.2948 18.2105 12.9198 18.5856C12.5447 18.9607 12.334 19.4694 12.334 19.9998V25.9998H6.33398V14.4436ZM18.334 25.9998H14.334V19.9998H18.334V25.9998Z" fill="black"/>
</svg>
