<svg xmlns="http://www.w3.org/2000/svg"  viewBox="0 0 24 24" width="16px" height="16px" fill-rule="evenodd" clip-rule="evenodd"><path d="M 7 1.25 C 6.005 1.25 5.0516563 1.6446562 4.3476562 2.3476562 C 3.6446563 3.0516562 3.25 4.005 3.25 5 L 3.25 12.642578 C 2.026 13.696578 1.25 15.258 1.25 17 C 1.25 20.174 3.826 22.75 7 22.75 C 10.174 22.75 12.75 20.174 12.75 17 C 12.75 15.259 11.974 13.697578 10.75 12.642578 L 10.75 5 C 10.75 4.005 10.355344 3.0516562 9.6523438 2.3476562 C 8.9483437 1.6446563 7.995 1.25 7 1.25 z M 16 1.25 C 15.808 1.25 15.616703 1.3242031 15.470703 1.4707031 C 15.177703 1.7627031 15.177703 2.2372969 15.470703 2.5292969 L 17.25 4.3085938 L 17.25 5.25 L 16.308594 5.25 L 14.529297 3.4707031 C 14.237297 3.1777031 13.762703 3.1777031 13.470703 3.4707031 C 13.177703 3.7627031 13.177703 4.2372969 13.470703 4.5292969 L 14.191406 5.25 L 14 5.25 C 13.586 5.25 13.25 5.586 13.25 6 C 13.25 6.414 13.586 6.75 14 6.75 L 14.191406 6.75 L 13.470703 7.4707031 C 13.177703 7.7627031 13.177703 8.2372969 13.470703 8.5292969 C 13.762703 8.8222969 14.237297 8.8222969 14.529297 8.5292969 L 16.308594 6.75 L 17.25 6.75 L 17.25 7.6914062 L 15.470703 9.4707031 C 15.177703 9.7627031 15.177703 10.237297 15.470703 10.529297 C 15.762703 10.822297 16.237297 10.822297 16.529297 10.529297 L 17.25 9.8085938 L 17.25 10 C 17.25 10.414 17.586 10.75 18 10.75 C 18.414 10.75 18.75 10.414 18.75 10 L 18.75 9.8085938 L 19.470703 10.529297 C 19.762703 10.822297 20.237297 10.822297 20.529297 10.529297 C 20.822297 10.237297 20.822297 9.7627031 20.529297 9.4707031 L 18.75 7.6914062 L 18.75 6.75 L 19.691406 6.75 L 21.470703 8.5292969 C 21.762703 8.8222969 22.237297 8.8222969 22.529297 8.5292969 C 22.822297 8.2372969 22.822297 7.7627031 22.529297 7.4707031 L 21.808594 6.75 L 22 6.75 C 22.414 6.75 22.75 6.414 22.75 6 C 22.75 5.586 22.414 5.25 22 5.25 L 21.808594 5.25 L 22.529297 4.5292969 C 22.822297 4.2372969 22.822297 3.7627031 22.529297 3.4707031 C 22.237297 3.1777031 21.762703 3.1777031 21.470703 3.4707031 L 19.691406 5.25 L 18.75 5.25 L 18.75 4.3085938 L 20.529297 2.5292969 C 20.822297 2.2372969 20.822297 1.7627031 20.529297 1.4707031 C 20.237297 1.1777031 19.762703 1.1777031 19.470703 1.4707031 L 18.75 2.1914062 L 18.75 2 C 18.75 1.586 18.414 1.25 18 1.25 C 17.586 1.25 17.25 1.586 17.25 2 L 17.25 2.1914062 L 16.529297 1.4707031 C 16.383297 1.3242031 16.192 1.25 16 1.25 z M 7 2.75 C 7.597 2.75 8.1697969 2.9862031 8.5917969 3.4082031 C 9.0137969 3.8302031 9.25 4.403 9.25 5 L 9.25 13.001953 C 9.25 13.237953 9.3608281 13.458609 9.5488281 13.599609 C 10.580828 14.375609 11.25 15.61 11.25 17 C 11.25 19.346 9.346 21.25 7 21.25 C 4.654 21.25 2.75 19.346 2.75 17 C 2.75 15.61 3.4191719 14.375609 4.4511719 13.599609 C 4.6391719 13.458609 4.75 13.237953 4.75 13.001953 L 4.75 5 C 4.75 4.403 4.9862031 3.8302031 5.4082031 3.4082031 C 5.8302031 2.9862031 6.403 2.75 7 2.75 z M 7 5.25 C 6.586 5.25 6.25 5.586 6.25 6 L 6.25 14.367188 C 5.0984573 14.695395 4.25 15.743613 4.25 17 C 4.25 18.518 5.482 19.75 7 19.75 C 8.518 19.75 9.75 18.518 9.75 17 C 9.75 15.743613 8.9015427 14.695395 7.75 14.367188 L 7.75 6 C 7.75 5.586 7.414 5.25 7 5.25 z M 7 15.75 C 7.69 15.75 8.25 16.31 8.25 17 C 8.25 17.69 7.69 18.25 7 18.25 C 6.31 18.25 5.75 17.69 5.75 17 C 5.75 16.31 6.31 15.75 7 15.75 z"/></svg>