<svg width="33" height="32" viewBox="0 0 33 32" fill="none" xmlns="http://www.w3.org/2000/svg">
<path d="M27.333 7V14.3462C27.333 24.8687 18.4193 28.355 16.6405 28.9463C16.4413 29.015 16.2247 29.015 16.0255 28.9463C14.2468 28.3575 5.33301 24.875 5.33301 14.3488V7C5.33301 6.73478 5.43836 6.48043 5.6259 6.29289C5.81344 6.10536 6.06779 6 6.33301 6H26.333C26.5982 6 26.8526 6.10536 27.0401 6.29289C27.2277 6.48043 27.333 6.73478 27.333 7Z" fill="#F49D6E" fill-opacity="0.5"/>
<path d="M26.333 5H6.33301C5.80257 5 5.29387 5.21071 4.91879 5.58579C4.54372 5.96086 4.33301 6.46957 4.33301 7V14.3475C4.33301 25.5487 13.8105 29.265 15.708 29.8962C16.1133 30.0341 16.5527 30.0341 16.958 29.8962C18.858 29.265 28.333 25.5487 28.333 14.3475V7C28.333 6.46957 28.1223 5.96086 27.7472 5.58579C27.3721 5.21071 26.8634 5 26.333 5ZM26.333 14.3488C26.333 24.1512 18.0393 27.4263 16.333 27.9963C14.6418 27.4325 6.33301 24.16 6.33301 14.3488V7H26.333V14.3488ZM10.6255 17.7075C10.4379 17.5199 10.3325 17.2654 10.3325 17C10.3325 16.7346 10.4379 16.4801 10.6255 16.2925C10.8131 16.1049 11.0676 15.9994 11.333 15.9994C11.5984 15.9994 11.8529 16.1049 12.0405 16.2925L14.333 18.585L20.6255 12.2925C20.7184 12.1996 20.8287 12.1259 20.9501 12.0756C21.0715 12.0253 21.2016 11.9994 21.333 11.9994C21.4644 11.9994 21.5945 12.0253 21.7159 12.0756C21.8373 12.1259 21.9476 12.1996 22.0405 12.2925C22.1334 12.3854 22.2071 12.4957 22.2574 12.6171C22.3077 12.7385 22.3336 12.8686 22.3336 13C22.3336 13.1314 22.3077 13.2615 22.2574 13.3829C22.2071 13.5043 22.1334 13.6146 22.0405 13.7075L15.0405 20.7075C14.9476 20.8005 14.8373 20.8742 14.7159 20.9246C14.5946 20.9749 14.4644 21.0008 14.333 21.0008C14.2016 21.0008 14.0715 20.9749 13.9501 20.9246C13.8287 20.8742 13.7184 20.8005 13.6255 20.7075L10.6255 17.7075Z" fill="black"/>
</svg>
