<svg xmlns="http://www.w3.org/2000/svg"  viewBox="0 0 24 24" width="16px" height="16px"><path d="M 5 3 A 2 2 0 0 0 3 5 A 2 2 0 0 0 4 6.7304688 L 4 10.832031 A 1.0001 1.0001 0 0 0 4 11.158203 L 4 15.271484 A 2 2 0 0 0 3 17 A 2 2 0 0 0 5 19 A 2 2 0 0 0 7 17 A 2 2 0 0 0 6 15.269531 L 6 12 L 11 12 L 11 15.269531 A 2 2 0 0 0 10 17 A 2 2 0 0 0 12 19 A 2 2 0 0 0 14 17 A 2 2 0 0 0 13 15.271484 L 13 12 L 18 12 L 18 17.271484 A 2 2 0 0 0 17 19 A 2 2 0 0 0 19 21 A 2 2 0 0 0 21 19 A 2 2 0 0 0 20 17.269531 L 20 11.167969 A 1.0001 1.0001 0 0 0 20 10.841797 L 20 6.7285156 A 2 2 0 0 0 21 5 A 2 2 0 0 0 19 3 A 2 2 0 0 0 17 5 A 2 2 0 0 0 18 6.7304688 L 18 10 L 13 10 L 13 6.7285156 A 2 2 0 0 0 14 5 A 2 2 0 0 0 12 3 A 2 2 0 0 0 10 5 A 2 2 0 0 0 11 6.7304688 L 11 10 L 6 10 L 6 6.7285156 A 2 2 0 0 0 7 5 A 2 2 0 0 0 5 3 z"/></svg>