<svg xmlns="http://www.w3.org/2000/svg"  viewBox="0 0 32 32" width="16px" height="16px"><path d="M 9 6 C 6.25 6 4 8.25 4 11 C 4 12.515625 4.707031 13.863281 5.78125 14.78125 C 3.542969 15.953125 2 18.316406 2 21 L 4 21 C 4 18.246094 6.246094 16 9 16 C 10.382813 16 11.5 16.476563 12.375 17.34375 C 12.140625 17.851563 12 18.410156 12 19 C 12 20.113281 12.476563 21.117188 13.21875 21.84375 C 11.886719 22.746094 11 24.285156 11 26 L 13 26 C 13 24.34375 14.34375 23 16 23 C 17.65625 23 19 24.34375 19 26 L 21 26 C 21 24.285156 20.113281 22.746094 18.78125 21.84375 C 19.523438 21.117188 20 20.113281 20 19 C 20 18.410156 19.859375 17.851563 19.625 17.34375 C 20.5 16.476563 21.617188 16 23 16 C 25.753906 16 28 18.246094 28 21 L 30 21 C 30 18.316406 28.457031 15.953125 26.21875 14.78125 C 27.292969 13.863281 28 12.515625 28 11 C 28 8.25 25.75 6 23 6 C 20.25 6 18 8.25 18 11 C 18 12.515625 18.707031 13.863281 19.78125 14.78125 C 19.265625 15.050781 18.804688 15.417969 18.375 15.8125 C 17.707031 15.308594 16.894531 15 16 15 C 15.105469 15 14.292969 15.308594 13.625 15.8125 C 13.195313 15.417969 12.734375 15.050781 12.21875 14.78125 C 13.292969 13.863281 14 12.515625 14 11 C 14 8.25 11.75 6 9 6 Z M 9 8 C 10.667969 8 12 9.332031 12 11 C 12 12.667969 10.667969 14 9 14 C 7.332031 14 6 12.667969 6 11 C 6 9.332031 7.332031 8 9 8 Z M 23 8 C 24.667969 8 26 9.332031 26 11 C 26 12.667969 24.667969 14 23 14 C 21.332031 14 20 12.667969 20 11 C 20 9.332031 21.332031 8 23 8 Z M 16 17 C 17.117188 17 18 17.882813 18 19 C 18 20.117188 17.117188 21 16 21 C 14.882813 21 14 20.117188 14 19 C 14 17.882813 14.882813 17 16 17 Z"/></svg>