<svg width="16" height="16" viewBox="0 0 16 16" fill="none" xmlns="http://www.w3.org/2000/svg">
<path d="M14 8C14 9.18669 13.6481 10.3467 12.9888 11.3334C12.3295 12.3201 11.3925 13.0892 10.2961 13.5433C9.19975 13.9974 7.99335 14.1162 6.82946 13.8847C5.66558 13.6532 4.59648 13.0818 3.75736 12.2426C2.91825 11.4035 2.3468 10.3344 2.11529 9.17054C1.88378 8.00666 2.0026 6.80026 2.45673 5.7039C2.91085 4.60754 3.67989 3.67047 4.66658 3.01118C5.65328 2.35189 6.81331 2 8 2C9.5913 2 11.1174 2.63214 12.2426 3.75736C13.3679 4.88258 14 6.4087 14 8Z" fill="#F49D6E" fill-opacity="0.5"/>
<path d="M8 1.5C6.27609 1.5 4.62279 2.18482 3.40381 3.40381C2.18482 4.62279 1.5 6.27609 1.5 8C1.5 9.72391 2.18482 11.3772 3.40381 12.5962C4.62279 13.8152 6.27609 14.5 8 14.5C9.34438 14.5 10.7562 14.095 11.7769 13.4169C11.8316 13.3805 11.8786 13.3337 11.9152 13.2792C11.9518 13.2247 11.9774 13.1635 11.9903 13.0991C12.0033 13.0347 12.0035 12.9684 11.9908 12.9039C11.9782 12.8395 11.9529 12.7781 11.9166 12.7234C11.8802 12.6687 11.8334 12.6217 11.7789 12.5851C11.7244 12.5485 11.6632 12.5229 11.5988 12.51C11.5344 12.497 11.4681 12.4968 11.4036 12.5095C11.3392 12.5222 11.2778 12.5474 11.2231 12.5837C10.375 13.1487 9.13812 13.5 8 13.5C6.9122 13.5 5.84883 13.1774 4.94436 12.5731C4.03989 11.9687 3.33494 11.1098 2.91866 10.1048C2.50238 9.09977 2.39346 7.9939 2.60568 6.927C2.8179 5.86011 3.34172 4.8801 4.11091 4.11091C4.8801 3.34172 5.86011 2.8179 6.927 2.60568C7.9939 2.39346 9.09977 2.50238 10.1048 2.91866C11.1098 3.33494 11.9687 4.03989 12.5731 4.94436C13.1774 5.84883 13.5 6.9122 13.5 8C13.5 9.65312 12.82 10 12.25 10C11.68 10 11 9.65312 11 8V5.5C11 5.36739 10.9473 5.24021 10.8536 5.14645C10.7598 5.05268 10.6326 5 10.5 5C10.3674 5 10.2402 5.05268 10.1464 5.14645C10.0527 5.24021 10 5.36739 10 5.5V5.76625C9.5513 5.36396 8.99184 5.10612 8.39451 5.02634C7.79718 4.94655 7.18966 5.04852 6.65111 5.31895C6.11255 5.58938 5.66793 6.01573 5.37515 6.54247C5.08238 7.06922 4.95503 7.67192 5.0097 8.27207C5.06437 8.87223 5.29852 9.442 5.68165 9.90718C6.06477 10.3724 6.57912 10.7114 7.15767 10.88C7.73622 11.0487 8.35216 11.0392 8.92525 10.8528C9.49833 10.6664 10.002 10.3117 10.3706 9.835C10.7456 10.585 11.3925 11 12.25 11C13.6588 11 14.5 9.87875 14.5 8C14.4982 6.27665 13.8128 4.62441 12.5942 3.40582C11.3756 2.18722 9.72335 1.50182 8 1.5ZM8 10C7.60444 10 7.21776 9.8827 6.88886 9.66294C6.55996 9.44318 6.30362 9.13082 6.15224 8.76537C6.00087 8.39991 5.96126 7.99778 6.03843 7.60982C6.1156 7.22186 6.30608 6.86549 6.58579 6.58579C6.86549 6.30608 7.22186 6.1156 7.60982 6.03843C7.99778 5.96126 8.39991 6.00087 8.76537 6.15224C9.13082 6.30362 9.44318 6.55996 9.66294 6.88886C9.8827 7.21776 10 7.60444 10 8C10 8.53043 9.78929 9.03914 9.41421 9.41421C9.03914 9.78929 8.53043 10 8 10Z" fill="black"/>
</svg>
