<svg width="198" height="23" viewBox="0 0 198 23" fill="none" xmlns="http://www.w3.org/2000/svg">
<path d="M21.288 7.76V3.2H1.2V20H21.288V15.44H6.48V13.808H19.656V9.44H6.48V7.76H21.288ZM42.2526 20H47.6046L43.1646 3.2H27.1566L22.7166 20H28.0446L28.7406 17.336H41.5566L42.2526 20ZM29.9406 12.656L31.1886 7.832H39.0846L40.3326 12.656H29.9406ZM64.8392 9.392H55.3352C54.2552 9.392 53.8472 9.008 53.8472 8.504C53.8472 8 54.3032 7.448 56.2952 7.448H62.7512C64.4792 7.448 65.1272 8.048 65.2232 8.744H70.5272C70.5272 7.112 69.6872 2.912 62.8952 2.912H56.2952C50.3672 2.936 48.4712 5.84 48.4712 8.768C48.4712 11.744 50.5832 13.664 54.7592 13.664H63.8552C65.0792 13.664 65.4872 14.072 65.4872 14.552C65.4872 15.2 64.6952 15.584 62.7992 15.584H56.3672C54.6632 15.584 53.6552 15.128 53.5112 14.288H48.2072C48.2072 16.544 49.3112 20.288 56.0312 20.288H62.7992C68.4392 20.216 70.8872 17.912 70.8872 14.456C70.8872 11.48 68.8232 9.392 64.8392 9.392ZM88.9794 3.2L83.2914 8.816L77.6034 3.2H70.7634L80.6514 13.232V20H85.9314V13.256L95.8674 3.2H88.9794ZM110.329 15.512H103.897C101.617 15.512 100.057 13.88 100.057 11.6C100.057 9.464 101.617 7.832 103.897 7.832H110.329C112.153 7.832 113.521 8.96 114.001 10.424H119.473C118.945 5.888 115.297 2.912 110.329 2.912H103.897C98.5209 2.912 94.6809 6.416 94.6809 11.6C94.6809 16.808 98.6409 20.288 103.897 20.288H110.329C115.297 20.288 118.945 17.312 119.473 12.776H114.001C113.521 14.264 112.153 15.512 110.329 15.512ZM139.003 20H144.355L139.915 3.2H123.907L119.467 20H124.795L125.491 17.336H138.307L139.003 20ZM126.691 12.656L127.939 7.832H135.835L137.083 12.656H126.691ZM145.786 20H151.09V16.16H159.682L161.962 20H168.082L165.01 15.296C167.17 14.192 168.466 12.08 168.466 9.68C168.466 6.104 165.634 3.2 161.338 3.2H145.786V20ZM151.09 11.528V7.832H161.338C162.346 7.832 163.186 8.648 163.186 9.68C163.186 10.712 162.346 11.528 161.338 11.528H151.09Z" fill="#111111"/>
<path opacity="0.9" d="M197.4 11.8001C197.4 14.0152 196.743 16.1807 195.512 18.0225C194.282 19.8643 192.533 21.2998 190.486 22.1475C188.44 22.9952 186.188 23.217 184.015 22.7849C181.842 22.3527 179.847 21.286 178.28 19.7197C176.714 18.1533 175.647 16.1577 175.215 13.9851C174.783 11.8125 175.005 9.56057 175.853 7.51404C176.7 5.46751 178.136 3.71831 179.978 2.48764C181.819 1.25697 183.985 0.600098 186.2 0.600098C189.17 0.600098 192.019 1.78009 194.12 3.8805C196.22 5.98091 197.4 8.82967 197.4 11.8001Z" fill="#8BB174"/>
<path d="M179.5 15H185.76V13.17H181.65C181.65 12.98 181.77 12.84 182.12 12.76L183.62 12.41C185.15 12.05 185.86 11.51 185.86 10.27C185.86 9.04 184.98 7.88 182.76 7.88H182.73C180 7.88 179.65 9.73 179.65 10.41H181.86C181.88 10.08 182.11 9.79 182.73 9.79H182.76C183.41 9.79 183.62 10.02 183.62 10.29C183.62 10.56 183.37 10.71 183.03 10.78L181.71 11.07C180.29 11.38 179.5 11.91 179.5 13.17V15ZM193.051 12.11H192.411V8H188.161L186.561 12.06V13.96L190.311 13.97V15H192.411V13.98H193.051V12.11ZM188.691 12.11L189.551 9.93H190.311V12.11H188.691Z" fill="#111111"/>
</svg>
